<svg width="32" height="32" viewBox="0 0 32 32" fill="none" xmlns="http://www.w3.org/2000/svg">
<rect width="32" height="32" fill="#FBF9F1"/>
<g clip-path="url(#clip0_8260_81371)">
<path fill-rule="evenodd" clip-rule="evenodd" d="M22.0025 7.00384C21.8394 6.78726 21.5467 6.39851 21.3288 6.36331C20.7885 7.48648 20.6354 8.83215 21.0464 10.0203C21.2439 10.5914 21.5533 11.0689 21.8704 11.5583C21.9629 11.7011 22.0561 11.8449 22.1473 11.9923C21.8558 13.4173 21.0284 14.7004 20.1096 15.8066C19.8646 16.1017 19.6057 16.4118 19.3203 16.668C19.8164 15.7706 19.9436 14.749 19.6595 13.7576C19.4351 12.9748 18.9326 12.2802 18.2086 11.8896C17.5585 11.5388 16.7473 11.4809 16.045 11.6998C15.2401 11.9506 14.6062 12.5216 14.2187 13.2641C14.0933 13.5043 13.9997 13.755 13.9261 14.0153C13.547 13.2368 12.9995 12.5966 12.1568 12.31C11.4946 12.0847 10.7458 12.1113 10.1155 12.4223C9.52536 12.7203 9.07794 13.2407 8.8718 13.8689C8.58687 14.7155 8.71796 15.6256 9.11451 16.4137C9.69398 17.5654 10.8181 18.5568 11.8502 19.4669C12.124 19.7084 12.3913 19.9441 12.6403 20.1757L13.7228 21.1853C13.7745 21.2335 13.8264 21.2839 13.8787 21.3347C14.0357 21.4873 14.1972 21.6442 14.3742 21.7615C14.4525 21.7421 14.5175 21.6825 14.578 21.627C14.5861 21.6195 14.5942 21.6121 14.6022 21.6049C15.1535 21.1079 15.6857 20.586 16.2172 20.0649C16.4582 19.8286 16.699 19.5924 16.9414 19.3588C17.2348 19.0759 17.5319 18.7966 17.829 18.5172C18.2482 18.123 18.6675 17.7287 19.0766 17.3245C19.3867 17.0182 19.6873 16.7025 19.9784 16.3778C20.5061 15.7906 20.9805 15.1576 21.3963 14.4863C21.54 14.2492 21.6605 14.0034 21.781 13.7577C21.8703 13.5757 21.9595 13.3937 22.0582 13.2153C22.3653 12.6588 22.8967 12.2018 23.4052 11.8355C24.8668 12.1229 26.2652 12.2389 27.5619 11.3643C27.8283 11.1845 28.6141 10.5846 28.7107 10.2738C28.6829 10.2009 28.6457 10.1826 28.5755 10.1494C28.4247 10.0777 28.255 10.0317 28.0914 9.98737C28.0655 9.98033 28.0396 9.97333 28.0141 9.96627C27.1182 9.71896 26.1656 9.67837 25.2885 10.0218C24.7243 10.2427 24.1286 10.611 23.72 11.063C23.6513 11.1389 23.5879 11.2211 23.5245 11.3032C23.4388 11.4143 23.3529 11.5255 23.2536 11.6218C23.092 11.7787 22.9181 11.9258 22.744 12.0732C22.5926 12.2013 22.441 12.3296 22.297 12.4646C22.3417 12.1232 22.4455 11.8997 22.5575 11.6586C22.6224 11.5187 22.69 11.373 22.7506 11.1949C23.2534 9.71634 23.0084 8.30973 22.0566 7.07515C22.0408 7.05467 22.0226 7.03054 22.0025 7.00384ZM16.7669 11.9105C16.8304 11.9059 16.8936 11.906 16.957 11.9069C17.6055 11.9183 18.2216 12.1906 18.6668 12.6621C19.2288 13.2489 19.4982 14.0908 19.4751 14.8951C19.4564 15.541 19.2497 16.1572 18.915 16.7065C18.4174 17.5226 17.6783 18.2072 16.9661 18.867C16.8005 19.0203 16.6363 19.1725 16.477 19.3245L14.3821 21.3355C13.716 20.6921 13.0259 20.0691 12.3373 19.4474L12.3349 19.4452C12.1513 19.2795 11.9674 19.1134 11.7845 18.9475L11.7788 18.9426C10.8156 18.0981 9.67998 17.1025 9.23712 15.8704C8.98606 15.1718 8.97562 14.3966 9.29739 13.7186C9.54135 13.1972 9.98669 12.7972 10.5312 12.6103C11.1197 12.4085 11.7625 12.476 12.3164 12.749C12.9195 13.0461 13.3915 13.5912 13.6405 14.2121C13.685 14.323 13.7194 14.4377 13.7539 14.5524C13.7769 14.6291 13.8 14.7058 13.826 14.7813C13.8915 14.8341 13.9098 14.8388 13.9932 14.8538C14.0474 14.8183 14.175 14.4173 14.2848 14.0722C14.3509 13.8645 14.4106 13.6768 14.444 13.6012C14.5631 13.3278 14.721 13.0731 14.9128 12.8448C15.398 12.2691 16.0248 11.9754 16.7669 11.9105ZM18.5978 13.0146C17.6791 13.0266 16.7605 13.0292 15.8419 13.0226C15.637 13.5802 15.3793 14.1281 15.1237 14.6715C15.0295 14.8719 14.9353 15.0721 14.8444 15.2716C14.194 16.699 13.536 18.1229 12.8706 19.5433C13.0106 19.6656 13.1488 19.7898 13.2851 19.9162C13.6571 19.0339 14.0669 18.1672 14.4766 17.3006C14.8976 16.4101 15.3187 15.5197 15.6987 14.6123L15.7426 14.5424C15.7828 14.584 15.7844 14.6474 15.7858 14.706C15.786 14.714 15.7862 14.7219 15.7865 14.7296C15.7996 15.0784 15.7951 15.4307 15.7905 15.782C15.7882 15.9597 15.7859 16.1372 15.7859 16.3139L15.7916 19.5542C15.9429 19.41 16.0937 19.2637 16.2448 19.1171C16.6481 18.7258 17.0537 18.3324 17.4775 17.9697C17.4885 17.2364 17.4909 16.503 17.4848 15.7697C17.4843 15.6574 17.4818 15.5432 17.4792 15.4279C17.4709 15.0469 17.4623 14.6551 17.5252 14.289C17.5664 14.0481 17.64 13.7963 17.8184 13.6206C18.0725 13.37 18.4465 13.3193 18.7871 13.3024C18.7674 13.2724 18.748 13.2424 18.7285 13.2123C18.6855 13.1459 18.6425 13.0795 18.5978 13.0146ZM22.4542 8.20511C22.2794 7.80505 21.7854 6.96887 21.4194 6.74504C20.9667 8.1024 20.8743 9.21093 21.5257 10.5248C21.7139 10.9044 21.9447 11.2575 22.1768 11.611C22.2309 10.4806 22.1123 9.46405 21.8282 8.37124L21.8778 8.32096C22.019 8.40144 22.1434 8.85999 22.1977 9.06036C22.2018 9.07557 22.2057 9.08976 22.209 9.10169C22.4119 9.83715 22.4548 10.5538 22.4507 11.3111C22.8467 10.2936 22.896 9.21685 22.4542 8.20511ZM26.3249 10.0347C27.0328 9.98676 27.7134 10.1149 28.3906 10.3124C28.1033 10.6386 27.7549 10.9367 27.3943 11.1786C26.2789 11.927 25.0264 11.8888 23.7592 11.6381C24.0518 11.4772 24.3678 11.3507 24.6781 11.228C25.1418 11.0542 25.6224 10.9271 26.1043 10.8156C26.1782 10.7986 26.2543 10.7864 26.3305 10.7743C26.4398 10.7568 26.5493 10.7394 26.6529 10.7072C26.7022 10.6919 26.7399 10.6752 26.7758 10.6367C26.7971 10.6139 26.7968 10.6118 26.7939 10.5927C26.7931 10.5873 26.7921 10.5805 26.7913 10.5714C26.7899 10.5706 26.7886 10.5697 26.7872 10.5688C26.7861 10.5681 26.7851 10.5673 26.784 10.5666C26.7795 10.5635 26.775 10.5605 26.7699 10.5583C26.7014 10.5287 26.5734 10.545 26.4741 10.5576C26.4465 10.5611 26.4212 10.5644 26.3999 10.5662C25.5008 10.6459 24.6944 10.9403 23.8671 11.2785C24.541 10.5827 25.3589 10.1425 26.3249 10.0347Z" fill="#B09A0C"/>
<path fill-rule="evenodd" clip-rule="evenodd" d="M18.5984 13.0146C17.6798 13.0266 16.7612 13.0292 15.8426 13.0226C15.6376 13.5802 15.38 14.128 15.1245 14.6713C15.0302 14.8719 14.9361 15.072 14.8451 15.2716C14.1946 16.699 13.5367 18.1229 12.8713 19.5432C13.0113 19.6656 13.1495 19.7898 13.2858 19.9162C13.6578 19.0339 14.0676 18.1672 14.4773 17.3006C14.8983 16.4102 15.3193 15.5197 15.6993 14.6123L15.7432 14.5424C15.7835 14.584 15.7851 14.6472 15.7865 14.7058C15.7867 14.7138 15.7869 14.7218 15.7872 14.7296C15.8003 15.0784 15.7958 15.4306 15.7912 15.782C15.7889 15.9597 15.7866 16.1372 15.7866 16.3139L15.7922 19.5542C15.9436 19.41 16.0944 19.2637 16.2455 19.1171C16.6488 18.7258 17.0544 18.3324 17.4782 17.9697C17.4892 17.2364 17.4916 16.503 17.4854 15.7697C17.4849 15.6574 17.4824 15.5431 17.4799 15.4279C17.4716 15.0469 17.463 14.6551 17.5259 14.2889C17.5671 14.0481 17.6407 13.7963 17.819 13.6206C18.0731 13.37 18.4472 13.3193 18.7877 13.3023C18.7681 13.2724 18.7486 13.2423 18.7292 13.2122C18.6862 13.1459 18.6432 13.0795 18.5984 13.0146Z" fill="white"/>
<path d="M15.8423 13.0226C16.761 13.0292 17.6796 13.0266 18.5982 13.0146C18.6633 13.1089 18.7246 13.2064 18.7875 13.3023C18.4469 13.3193 18.0729 13.37 17.8188 13.6206C17.6405 13.7963 17.5669 14.0481 17.5256 14.2889C17.4437 14.7659 17.4831 15.2863 17.4852 15.7697C17.4914 16.503 17.489 17.2364 17.478 17.9697C16.8954 18.4683 16.3473 19.0249 15.792 19.5542L15.7864 16.3139C15.7864 15.7878 15.8067 15.2548 15.7869 14.7296C15.7845 14.6649 15.7888 14.5897 15.743 14.5424L15.6991 14.6123C14.9493 16.4027 14.0398 18.1272 13.2856 19.9162C13.1492 19.7898 13.0111 19.6656 12.8711 19.5432C13.5365 18.1229 14.1944 16.699 14.8448 15.2716C15.1824 14.531 15.5618 13.7861 15.8423 13.0226Z" fill="black"/>
<path d="M22.4274 13.0194C22.8817 13.0369 25.9666 12.99 26.0764 13.0453C26.0834 13.0815 26.0933 13.1218 26.0938 13.1591C26.0946 13.2635 26.0858 13.2872 25.9814 13.2978C25.2491 13.3726 24.7618 13.5052 24.1797 13.993C23.5754 14.4993 23.0266 15.0994 22.4718 15.6588L20.0003 18.1331C21.2059 19.4819 22.3778 20.8587 23.5728 22.2166C24.2244 22.9575 25.0818 24.0919 25.8721 24.614C26.13 24.7845 26.4328 24.9388 26.7343 25.0137C26.9605 25.07 27.2829 25.0734 27.4834 25.1899C27.4839 25.2694 27.5016 25.3326 27.4531 25.3979C27.0231 25.4333 26.5744 25.4025 26.142 25.3963C25.4004 25.3805 24.6582 25.3771 23.9163 25.3856C23.6526 25.3888 22.46 25.4536 22.2967 25.4036L22.2764 25.3088C22.3564 25.0686 22.7669 25.1181 22.9658 24.9741C23.0657 24.9018 23.1232 24.8057 23.1345 24.6823C23.1511 24.5034 23.0828 24.3315 22.995 24.1797C22.7703 23.7902 22.429 23.4434 22.1371 23.101L20.7481 21.4739C20.117 20.7422 19.4927 20.0014 18.841 19.2878C18.3922 19.7403 17.9285 20.1757 17.483 20.6324L17.4843 22.7318C17.4849 23.1422 17.4629 23.5722 17.5076 23.9803C17.6046 24.8611 17.9821 25.0617 18.8145 25.1248C18.958 25.1358 19.1007 25.1305 19.2182 25.2234C19.2482 25.293 19.2525 25.308 19.2447 25.3829C19.1711 25.4191 19.0793 25.4207 18.9987 25.4218C17.9762 25.4357 16.9497 25.4052 15.9264 25.4103C15.4886 25.4127 14.5122 25.4694 14.1196 25.4054C14.1123 25.3709 14.1024 25.3334 14.1016 25.2978C14.1012 25.2793 14.1046 25.1851 14.1145 25.1717C14.1279 25.1535 15.1408 25.1374 15.4693 24.8014C15.6136 24.6539 15.6881 24.4389 15.7269 24.24C15.8198 23.7639 15.7839 23.2472 15.7818 22.7644C15.7775 22.1489 15.777 21.5334 15.7807 20.9178C16.321 20.3596 16.9074 19.8346 17.4742 19.3028L17.4835 19.9387C17.9491 19.4482 18.4549 18.9863 18.9363 18.51L21.4279 16.0108C21.913 15.5228 22.4533 15.0413 22.8916 14.5122C23.0078 14.3718 23.1524 14.1867 23.1773 14.003C23.1977 13.8514 23.1803 13.7 23.0801 13.5791C22.9061 13.3688 22.6097 13.3396 22.3578 13.3096L22.4274 13.0194Z" fill="black"/>
<path d="M3.39453 13.0275C4.50507 13.0347 5.61563 13.0329 6.72614 13.0221C7.1719 14.0918 7.67739 15.1403 8.15483 16.1964L11.2622 23.0547C11.657 22.1837 12.0637 21.3181 12.4821 20.4581C12.6118 20.5698 12.7343 20.6918 12.859 20.8091C12.3687 21.8611 11.8852 22.9162 11.4085 23.9743C11.2207 24.3859 10.9809 25.0351 10.7377 25.4001C10.6705 25.4124 10.607 25.4311 10.5399 25.4105C10.1773 24.7733 9.85242 23.9334 9.54197 23.2525L7.58995 18.9641C6.93203 17.6139 6.31264 16.2374 5.69432 14.8686C5.73676 16.9325 5.69938 19.0064 5.69989 21.0712C5.70008 21.9355 5.61981 23.3987 5.8064 24.1942C5.95882 24.8442 6.39312 25.0766 7.01905 25.1227C7.17677 25.1345 7.3643 25.1243 7.50216 25.211C7.5413 25.2812 7.54374 25.2948 7.54237 25.3754C7.53522 25.3797 7.52856 25.3851 7.52095 25.3888C7.45322 25.4218 7.36047 25.4218 7.28598 25.4231C6.45149 25.4389 5.61185 25.4191 4.77682 25.4196C4.46836 25.4196 3.69175 25.4683 3.42786 25.4006C3.40326 25.3446 3.39927 25.3219 3.4118 25.2619C3.55394 25.0729 4.29093 25.1114 4.5916 24.927C4.87894 24.7505 5.02764 24.4686 5.10534 24.1497C5.27169 23.467 5.19916 22.6707 5.19726 21.9687L5.19126 19.0592L5.18949 16.1487C5.18907 15.6099 5.21565 15.0566 5.17225 14.5204C5.15338 14.2872 5.10422 14.0753 4.97782 13.874C4.60959 13.2878 4.00683 13.4029 3.43485 13.2712C3.38395 13.1995 3.3974 13.1142 3.39453 13.0275Z" fill="black"/>
</g>
<defs>
<clipPath id="clip0_8260_81371">
<rect width="25.625" height="20" fill="white" transform="translate(3.1875 6)"/>
</clipPath>
</defs>
</svg>
